<mxfile host="app.diagrams.net" modified="2024-04-21T14:00:06.915Z" agent="Mozilla/5.0 (X11; Linux x86_64) AppleWebKit/537.36 (KHTML, like Gecko) Chrome/123.0.0.0 Safari/537.36" etag="OaqKMbp8dxXIsZeXWHzT" version="24.2.7" type="device">
  <diagram name="Page-1" id="GW7oA3nV-k5ilSyK7HA6">
    <mxGraphModel dx="1852" dy="2072" grid="1" gridSize="10" guides="1" tooltips="1" connect="1" arrows="1" fold="1" page="1" pageScale="1" pageWidth="1169" pageHeight="1654" math="0" shadow="0">
      <root>
        <mxCell id="0" />
        <mxCell id="1" parent="0" />
        <mxCell id="Uzyk35j1nbnxZXCuV49e-1" value="&lt;font style=&quot;font-size: 19px;&quot;&gt;Клиент&lt;/font&gt;" style="ellipse;whiteSpace=wrap;html=1;fontStyle=1;fontSize=14;" parent="1" vertex="1">
          <mxGeometry x="1020" y="200" width="130" height="50" as="geometry" />
        </mxCell>
        <mxCell id="Uzyk35j1nbnxZXCuV49e-2" value="&lt;font style=&quot;font-size: 22px;&quot;&gt;Агентство&lt;/font&gt;" style="ellipse;whiteSpace=wrap;html=1;fontStyle=1;fontSize=14;" parent="1" vertex="1">
          <mxGeometry x="530" y="484" width="170" height="80" as="geometry" />
        </mxCell>
        <mxCell id="Uzyk35j1nbnxZXCuV49e-3" value="Юрист" style="ellipse;whiteSpace=wrap;html=1;fontStyle=1;fontSize=14;" parent="1" vertex="1">
          <mxGeometry x="820" y="120" width="100" height="40" as="geometry" />
        </mxCell>
        <mxCell id="Uzyk35j1nbnxZXCuV49e-4" value="Заявка" style="ellipse;whiteSpace=wrap;html=1;fontStyle=1;fontSize=14;" parent="1" vertex="1">
          <mxGeometry x="790" y="330" width="100" height="40" as="geometry" />
        </mxCell>
        <mxCell id="Uzyk35j1nbnxZXCuV49e-5" value="Договор" style="ellipse;whiteSpace=wrap;html=1;fontStyle=1;fontSize=14;" parent="1" vertex="1">
          <mxGeometry x="660" y="260" width="100" height="40" as="geometry" />
        </mxCell>
        <mxCell id="Uzyk35j1nbnxZXCuV49e-6" value="Заказ" style="ellipse;whiteSpace=wrap;html=1;fontStyle=1;fontSize=14;" parent="1" vertex="1">
          <mxGeometry x="720" y="620" width="100" height="40" as="geometry" />
        </mxCell>
        <mxCell id="Uzyk35j1nbnxZXCuV49e-7" value="&lt;font style=&quot;font-size: 14px;&quot;&gt;Рекламный пост&lt;br style=&quot;font-size: 14px;&quot;&gt;в соц. сетях&lt;/font&gt;" style="ellipse;whiteSpace=wrap;html=1;fontStyle=1;fontSize=14;" parent="1" vertex="1">
          <mxGeometry x="645" y="1030" width="130" height="56" as="geometry" />
        </mxCell>
        <mxCell id="Uzyk35j1nbnxZXCuV49e-8" value="&lt;font style=&quot;font-size: 14px;&quot;&gt;Пробная партия рекламных щитов, баннеров и буклетов&lt;/font&gt;" style="ellipse;whiteSpace=wrap;html=1;fontStyle=1;fontSize=14;" parent="1" vertex="1">
          <mxGeometry x="460" y="853" width="165" height="94" as="geometry" />
        </mxCell>
        <mxCell id="Uzyk35j1nbnxZXCuV49e-12" value="&lt;font style=&quot;font-size: 14px;&quot;&gt;Финальная партия рекламных щитов и баннеров&lt;/font&gt;" style="ellipse;whiteSpace=wrap;html=1;fontStyle=1;fontSize=14;" parent="1" vertex="1">
          <mxGeometry y="230" width="165" height="86" as="geometry" />
        </mxCell>
        <mxCell id="Uzyk35j1nbnxZXCuV49e-16" value="Место&amp;nbsp;&lt;span style=&quot;background-color: initial; font-size: 14px;&quot;&gt;под щиты и баннеры&lt;/span&gt;" style="ellipse;whiteSpace=wrap;html=1;fontStyle=1;fontSize=14;" parent="1" vertex="1">
          <mxGeometry x="130" y="496" width="155" height="56" as="geometry" />
        </mxCell>
        <mxCell id="Uzyk35j1nbnxZXCuV49e-18" value="Студенты" style="ellipse;whiteSpace=wrap;html=1;fontStyle=1;fontSize=14;" parent="1" vertex="1">
          <mxGeometry x="110" y="50" width="100" height="40" as="geometry" />
        </mxCell>
        <mxCell id="Uzyk35j1nbnxZXCuV49e-19" value="Дополнительное соглашение к договору" style="ellipse;whiteSpace=wrap;html=1;fontStyle=1;fontSize=14;" parent="1" vertex="1">
          <mxGeometry x="970" y="10" width="160" height="60" as="geometry" />
        </mxCell>
        <mxCell id="Uzyk35j1nbnxZXCuV49e-20" value="Статус" style="ellipse;whiteSpace=wrap;html=1;fontStyle=1;fontSize=14;" parent="1" vertex="1">
          <mxGeometry x="810" y="460" width="100" height="40" as="geometry" />
        </mxCell>
        <mxCell id="Uzyk35j1nbnxZXCuV49e-21" value="Качество" style="ellipse;whiteSpace=wrap;html=1;fontStyle=1;fontSize=14;" parent="1" vertex="1">
          <mxGeometry x="220" y="880" width="100" height="40" as="geometry" />
        </mxCell>
        <mxCell id="Uzyk35j1nbnxZXCuV49e-22" value="&lt;font style=&quot;font-size: 14px;&quot;&gt;Финальная партия рекламных буклетов&lt;/font&gt;" style="ellipse;whiteSpace=wrap;html=1;fontStyle=1;fontSize=14;" parent="1" vertex="1">
          <mxGeometry x="405" y="114" width="180" height="70" as="geometry" />
        </mxCell>
        <mxCell id="Uzyk35j1nbnxZXCuV49e-23" value="Промоутер" style="ellipse;whiteSpace=wrap;html=1;fontStyle=1;fontSize=14;" parent="1" vertex="1">
          <mxGeometry x="685" y="840" width="100" height="40" as="geometry" />
        </mxCell>
        <mxCell id="Uzyk35j1nbnxZXCuV49e-24" value="Счёт" style="ellipse;whiteSpace=wrap;html=1;fontStyle=1;fontSize=14;" parent="1" vertex="1">
          <mxGeometry x="1080" y="390" width="89" height="40" as="geometry" />
        </mxCell>
        <mxCell id="Uzyk35j1nbnxZXCuV49e-28" value="" style="endArrow=classic;html=1;rounded=0;fontStyle=1;fontSize=14;" parent="1" source="Uzyk35j1nbnxZXCuV49e-2" target="Uzyk35j1nbnxZXCuV49e-4" edge="1">
          <mxGeometry width="50" height="50" relative="1" as="geometry">
            <mxPoint x="630" y="514" as="sourcePoint" />
            <mxPoint x="680" y="464" as="targetPoint" />
          </mxGeometry>
        </mxCell>
        <mxCell id="Uzyk35j1nbnxZXCuV49e-29" value="" style="endArrow=classic;html=1;rounded=0;fontStyle=1;fontSize=14;" parent="1" source="Uzyk35j1nbnxZXCuV49e-1" target="Uzyk35j1nbnxZXCuV49e-4" edge="1">
          <mxGeometry width="50" height="50" relative="1" as="geometry">
            <mxPoint x="390" y="248" as="sourcePoint" />
            <mxPoint x="481" y="309" as="targetPoint" />
          </mxGeometry>
        </mxCell>
        <mxCell id="Uzyk35j1nbnxZXCuV49e-30" value="" style="endArrow=classic;html=1;rounded=0;fontStyle=1;fontSize=14;" parent="1" source="Uzyk35j1nbnxZXCuV49e-23" target="Uzyk35j1nbnxZXCuV49e-79" edge="1">
          <mxGeometry width="50" height="50" relative="1" as="geometry">
            <mxPoint x="-280" y="834" as="sourcePoint" />
            <mxPoint x="-420" y="878" as="targetPoint" />
          </mxGeometry>
        </mxCell>
        <mxCell id="Uzyk35j1nbnxZXCuV49e-31" value="" style="endArrow=classic;html=1;rounded=0;fontStyle=1;fontSize=14;" parent="1" source="Uzyk35j1nbnxZXCuV49e-2" target="Uzyk35j1nbnxZXCuV49e-79" edge="1">
          <mxGeometry width="50" height="50" relative="1" as="geometry">
            <mxPoint x="-270" y="844" as="sourcePoint" />
            <mxPoint x="-410" y="888" as="targetPoint" />
          </mxGeometry>
        </mxCell>
        <mxCell id="Uzyk35j1nbnxZXCuV49e-32" value="" style="endArrow=classic;html=1;rounded=0;fontStyle=1;fontSize=14;" parent="1" source="Uzyk35j1nbnxZXCuV49e-2" target="Uzyk35j1nbnxZXCuV49e-8" edge="1">
          <mxGeometry width="50" height="50" relative="1" as="geometry">
            <mxPoint x="-10" y="244" as="sourcePoint" />
            <mxPoint x="-150" y="288" as="targetPoint" />
          </mxGeometry>
        </mxCell>
        <mxCell id="Uzyk35j1nbnxZXCuV49e-33" value="" style="endArrow=classic;html=1;rounded=0;fontStyle=1;fontSize=14;" parent="1" source="Uzyk35j1nbnxZXCuV49e-23" target="Uzyk35j1nbnxZXCuV49e-57" edge="1">
          <mxGeometry width="50" height="50" relative="1" as="geometry">
            <mxPoint x="245" y="410" as="sourcePoint" />
            <mxPoint x="105" y="454" as="targetPoint" />
          </mxGeometry>
        </mxCell>
        <mxCell id="Uzyk35j1nbnxZXCuV49e-34" value="" style="endArrow=classic;html=1;rounded=0;fontStyle=1;fontSize=14;" parent="1" source="Uzyk35j1nbnxZXCuV49e-7" target="Uzyk35j1nbnxZXCuV49e-57" edge="1">
          <mxGeometry width="50" height="50" relative="1" as="geometry">
            <mxPoint x="255" y="420" as="sourcePoint" />
            <mxPoint x="115" y="464" as="targetPoint" />
          </mxGeometry>
        </mxCell>
        <mxCell id="Uzyk35j1nbnxZXCuV49e-35" value="" style="endArrow=classic;html=1;rounded=0;fontStyle=1;fontSize=14;" parent="1" source="Uzyk35j1nbnxZXCuV49e-23" target="Uzyk35j1nbnxZXCuV49e-7" edge="1">
          <mxGeometry width="50" height="50" relative="1" as="geometry">
            <mxPoint x="265" y="430" as="sourcePoint" />
            <mxPoint x="125" y="474" as="targetPoint" />
          </mxGeometry>
        </mxCell>
        <mxCell id="Uzyk35j1nbnxZXCuV49e-36" value="" style="endArrow=classic;html=1;rounded=0;fontStyle=1;fontSize=14;" parent="1" source="Uzyk35j1nbnxZXCuV49e-3" target="Uzyk35j1nbnxZXCuV49e-19" edge="1">
          <mxGeometry width="50" height="50" relative="1" as="geometry">
            <mxPoint x="30" y="14" as="sourcePoint" />
            <mxPoint x="-110" y="58" as="targetPoint" />
          </mxGeometry>
        </mxCell>
        <mxCell id="Uzyk35j1nbnxZXCuV49e-37" value="" style="endArrow=classic;html=1;rounded=0;fontStyle=1;fontSize=14;" parent="1" source="Uzyk35j1nbnxZXCuV49e-2" target="Uzyk35j1nbnxZXCuV49e-6" edge="1">
          <mxGeometry width="50" height="50" relative="1" as="geometry">
            <mxPoint x="870" y="224" as="sourcePoint" />
            <mxPoint x="740" y="258" as="targetPoint" />
          </mxGeometry>
        </mxCell>
        <mxCell id="Uzyk35j1nbnxZXCuV49e-38" value="" style="endArrow=classic;html=1;rounded=0;fontStyle=1;fontSize=14;" parent="1" source="Uzyk35j1nbnxZXCuV49e-4" target="Uzyk35j1nbnxZXCuV49e-20" edge="1">
          <mxGeometry width="50" height="50" relative="1" as="geometry">
            <mxPoint x="800" y="24" as="sourcePoint" />
            <mxPoint x="660" y="68" as="targetPoint" />
          </mxGeometry>
        </mxCell>
        <mxCell id="Uzyk35j1nbnxZXCuV49e-39" value="" style="endArrow=classic;html=1;rounded=0;fontStyle=1;fontSize=14;" parent="1" source="Uzyk35j1nbnxZXCuV49e-2" target="Uzyk35j1nbnxZXCuV49e-5" edge="1">
          <mxGeometry width="50" height="50" relative="1" as="geometry">
            <mxPoint x="350" y="274" as="sourcePoint" />
            <mxPoint x="760" y="278" as="targetPoint" />
          </mxGeometry>
        </mxCell>
        <mxCell id="Uzyk35j1nbnxZXCuV49e-40" value="" style="endArrow=classic;html=1;rounded=0;fontStyle=1;fontSize=14;" parent="1" source="Uzyk35j1nbnxZXCuV49e-3" target="Uzyk35j1nbnxZXCuV49e-5" edge="1">
          <mxGeometry width="50" height="50" relative="1" as="geometry">
            <mxPoint x="820" y="44" as="sourcePoint" />
            <mxPoint x="680" y="88" as="targetPoint" />
          </mxGeometry>
        </mxCell>
        <mxCell id="Uzyk35j1nbnxZXCuV49e-41" value="" style="endArrow=classic;html=1;rounded=0;fontStyle=1;fontSize=14;" parent="1" source="Uzyk35j1nbnxZXCuV49e-3" target="Uzyk35j1nbnxZXCuV49e-4" edge="1">
          <mxGeometry width="50" height="50" relative="1" as="geometry">
            <mxPoint x="830" y="54" as="sourcePoint" />
            <mxPoint x="690" y="98" as="targetPoint" />
          </mxGeometry>
        </mxCell>
        <mxCell id="Uzyk35j1nbnxZXCuV49e-57" value="Статистика" style="ellipse;whiteSpace=wrap;html=1;fontStyle=1;fontSize=14;" parent="1" vertex="1">
          <mxGeometry x="830" y="980" width="100" height="40" as="geometry" />
        </mxCell>
        <mxCell id="Uzyk35j1nbnxZXCuV49e-70" value="" style="endArrow=classic;html=1;rounded=0;fontStyle=1;fontSize=14;" parent="1" source="Uzyk35j1nbnxZXCuV49e-2" target="Uzyk35j1nbnxZXCuV49e-88" edge="1">
          <mxGeometry width="50" height="50" relative="1" as="geometry">
            <mxPoint y="254" as="sourcePoint" />
            <mxPoint x="480" y="170" as="targetPoint" />
          </mxGeometry>
        </mxCell>
        <mxCell id="Uzyk35j1nbnxZXCuV49e-71" value="" style="endArrow=classic;html=1;rounded=0;fontStyle=1;fontSize=14;" parent="1" source="Uzyk35j1nbnxZXCuV49e-8" target="Uzyk35j1nbnxZXCuV49e-21" edge="1">
          <mxGeometry width="50" height="50" relative="1" as="geometry">
            <mxPoint x="77.5" y="2141" as="sourcePoint" />
            <mxPoint x="-62.5" y="2185" as="targetPoint" />
          </mxGeometry>
        </mxCell>
        <mxCell id="Uzyk35j1nbnxZXCuV49e-73" value="" style="endArrow=classic;html=1;rounded=0;fontStyle=1;fontSize=14;" parent="1" source="Uzyk35j1nbnxZXCuV49e-1" target="Uzyk35j1nbnxZXCuV49e-19" edge="1">
          <mxGeometry width="50" height="50" relative="1" as="geometry">
            <mxPoint x="30" y="284" as="sourcePoint" />
            <mxPoint x="520" y="204" as="targetPoint" />
          </mxGeometry>
        </mxCell>
        <mxCell id="Uzyk35j1nbnxZXCuV49e-79" value="Счет в соц. сетях" style="ellipse;whiteSpace=wrap;html=1;fontStyle=1;fontSize=14;" parent="1" vertex="1">
          <mxGeometry x="640" y="704.5" width="110" height="49" as="geometry" />
        </mxCell>
        <mxCell id="Uzyk35j1nbnxZXCuV49e-81" value="" style="endArrow=classic;html=1;rounded=0;fontStyle=1;fontSize=14;" parent="1" source="Uzyk35j1nbnxZXCuV49e-18" target="Uzyk35j1nbnxZXCuV49e-22" edge="1">
          <mxGeometry width="50" height="50" relative="1" as="geometry">
            <mxPoint x="-80" y="-210" as="sourcePoint" />
            <mxPoint x="-220" y="-166" as="targetPoint" />
          </mxGeometry>
        </mxCell>
        <mxCell id="Uzyk35j1nbnxZXCuV49e-82" value="" style="endArrow=classic;html=1;rounded=0;fontStyle=1;fontSize=14;" parent="1" source="Uzyk35j1nbnxZXCuV49e-2" target="Uzyk35j1nbnxZXCuV49e-18" edge="1">
          <mxGeometry width="50" height="50" relative="1" as="geometry">
            <mxPoint x="20" y="274" as="sourcePoint" />
            <mxPoint x="-120" y="318" as="targetPoint" />
          </mxGeometry>
        </mxCell>
        <mxCell id="Uzyk35j1nbnxZXCuV49e-83" value="" style="endArrow=classic;html=1;rounded=0;fontStyle=1;fontSize=14;" parent="1" source="Uzyk35j1nbnxZXCuV49e-16" target="Uzyk35j1nbnxZXCuV49e-12" edge="1">
          <mxGeometry width="50" height="50" relative="1" as="geometry">
            <mxPoint x="40" y="354" as="sourcePoint" />
            <mxPoint x="-100" y="398" as="targetPoint" />
          </mxGeometry>
        </mxCell>
        <mxCell id="Uzyk35j1nbnxZXCuV49e-84" value="" style="endArrow=classic;html=1;rounded=0;fontStyle=1;fontSize=14;" parent="1" source="Uzyk35j1nbnxZXCuV49e-2" target="Uzyk35j1nbnxZXCuV49e-16" edge="1">
          <mxGeometry width="50" height="50" relative="1" as="geometry">
            <mxPoint x="40" y="294" as="sourcePoint" />
            <mxPoint x="-100" y="338" as="targetPoint" />
          </mxGeometry>
        </mxCell>
        <mxCell id="Uzyk35j1nbnxZXCuV49e-85" value="" style="endArrow=classic;html=1;rounded=0;fontStyle=1;fontSize=14;" parent="1" source="Uzyk35j1nbnxZXCuV49e-2" target="Uzyk35j1nbnxZXCuV49e-22" edge="1">
          <mxGeometry width="50" height="50" relative="1" as="geometry">
            <mxPoint x="50" y="304" as="sourcePoint" />
            <mxPoint x="-90" y="348" as="targetPoint" />
          </mxGeometry>
        </mxCell>
        <mxCell id="Uzyk35j1nbnxZXCuV49e-86" value="" style="endArrow=classic;html=1;rounded=0;fontStyle=1;fontSize=14;" parent="1" source="Uzyk35j1nbnxZXCuV49e-2" target="Uzyk35j1nbnxZXCuV49e-12" edge="1">
          <mxGeometry width="50" height="50" relative="1" as="geometry">
            <mxPoint x="60" y="314" as="sourcePoint" />
            <mxPoint x="-80" y="358" as="targetPoint" />
          </mxGeometry>
        </mxCell>
        <mxCell id="Uzyk35j1nbnxZXCuV49e-88" value="Сотрудники" style="ellipse;whiteSpace=wrap;html=1;fontStyle=1;fontSize=14;" parent="1" vertex="1">
          <mxGeometry x="155" y="690" width="100" height="40" as="geometry" />
        </mxCell>
        <mxCell id="Uzyk35j1nbnxZXCuV49e-89" value="" style="endArrow=classic;html=1;rounded=0;fontStyle=1;fontSize=14;" parent="1" source="Uzyk35j1nbnxZXCuV49e-2" target="Uzyk35j1nbnxZXCuV49e-21" edge="1">
          <mxGeometry width="50" height="50" relative="1" as="geometry">
            <mxPoint x="2" y="38.5" as="sourcePoint" />
            <mxPoint x="-90" y="61.5" as="targetPoint" />
          </mxGeometry>
        </mxCell>
        <mxCell id="Uzyk35j1nbnxZXCuV49e-91" value="" style="endArrow=classic;html=1;rounded=0;fontStyle=1;fontSize=14;" parent="1" source="Uzyk35j1nbnxZXCuV49e-99" target="Uzyk35j1nbnxZXCuV49e-97" edge="1">
          <mxGeometry width="50" height="50" relative="1" as="geometry">
            <mxPoint x="219.46" y="-29.689999999999998" as="sourcePoint" />
            <mxPoint x="127.46" y="-6.689999999999998" as="targetPoint" />
          </mxGeometry>
        </mxCell>
        <mxCell id="Uzyk35j1nbnxZXCuV49e-92" value="" style="endArrow=classic;html=1;rounded=0;fontStyle=1;fontSize=14;" parent="1" source="Uzyk35j1nbnxZXCuV49e-2" target="Uzyk35j1nbnxZXCuV49e-24" edge="1">
          <mxGeometry width="50" height="50" relative="1" as="geometry">
            <mxPoint x="237" y="-83" as="sourcePoint" />
            <mxPoint x="145" y="-60" as="targetPoint" />
            <Array as="points">
              <mxPoint x="960" y="650" />
              <mxPoint x="1090" y="630" />
            </Array>
          </mxGeometry>
        </mxCell>
        <mxCell id="Uzyk35j1nbnxZXCuV49e-93" value="" style="endArrow=classic;html=1;rounded=0;fontStyle=1;fontSize=14;" parent="1" source="Uzyk35j1nbnxZXCuV49e-1" target="Uzyk35j1nbnxZXCuV49e-24" edge="1">
          <mxGeometry width="50" height="50" relative="1" as="geometry">
            <mxPoint x="247" y="-73" as="sourcePoint" />
            <mxPoint x="155" y="-50" as="targetPoint" />
          </mxGeometry>
        </mxCell>
        <mxCell id="Uzyk35j1nbnxZXCuV49e-96" value="&lt;span style=&quot;font-weight: 400;&quot;&gt;Обрабатывается&lt;/span&gt;" style="ellipse;whiteSpace=wrap;html=1;fontStyle=1;fontSize=14;" parent="1" vertex="1">
          <mxGeometry x="1020" y="774" width="130" height="50" as="geometry" />
        </mxCell>
        <mxCell id="Uzyk35j1nbnxZXCuV49e-97" value="&lt;span style=&quot;font-weight: 400;&quot;&gt;Завершен&lt;/span&gt;" style="ellipse;whiteSpace=wrap;html=1;fontStyle=1;fontSize=14;" parent="1" vertex="1">
          <mxGeometry x="950" y="900" width="120" height="50" as="geometry" />
        </mxCell>
        <mxCell id="Uzyk35j1nbnxZXCuV49e-99" value="Статус" style="ellipse;whiteSpace=wrap;html=1;fontStyle=1;fontSize=14;" parent="1" vertex="1">
          <mxGeometry x="820" y="709" width="100" height="40" as="geometry" />
        </mxCell>
        <mxCell id="Uzyk35j1nbnxZXCuV49e-101" value="" style="endArrow=classic;html=1;rounded=0;fontStyle=1;fontSize=14;" parent="1" source="Uzyk35j1nbnxZXCuV49e-6" target="Uzyk35j1nbnxZXCuV49e-99" edge="1">
          <mxGeometry width="50" height="50" relative="1" as="geometry">
            <mxPoint x="800.0021104165758" y="700.0021881312578" as="sourcePoint" />
            <mxPoint x="172.46" y="46.31" as="targetPoint" />
          </mxGeometry>
        </mxCell>
        <mxCell id="Uzyk35j1nbnxZXCuV49e-102" value="" style="endArrow=classic;html=1;rounded=0;fontStyle=1;fontSize=14;" parent="1" source="Uzyk35j1nbnxZXCuV49e-99" target="Uzyk35j1nbnxZXCuV49e-96" edge="1">
          <mxGeometry width="50" height="50" relative="1" as="geometry">
            <mxPoint x="229.46" y="-19.689999999999998" as="sourcePoint" />
            <mxPoint x="137.46" y="3.3100000000000023" as="targetPoint" />
          </mxGeometry>
        </mxCell>
        <mxCell id="Uzyk35j1nbnxZXCuV49e-103" value="&lt;span style=&quot;font-weight: 400;&quot;&gt;Удовлетворяет ГОСТ&lt;/span&gt;" style="ellipse;whiteSpace=wrap;html=1;fontStyle=1;fontSize=14;" parent="1" vertex="1">
          <mxGeometry x="270" y="1100" width="150" height="60" as="geometry" />
        </mxCell>
        <mxCell id="Uzyk35j1nbnxZXCuV49e-104" value="&lt;span style=&quot;font-weight: 400;&quot;&gt;Не удовлетворяет ГОСТ&lt;/span&gt;" style="ellipse;whiteSpace=wrap;html=1;fontStyle=1;fontSize=14;" parent="1" vertex="1">
          <mxGeometry x="90" y="1100" width="150" height="60" as="geometry" />
        </mxCell>
        <mxCell id="Uzyk35j1nbnxZXCuV49e-109" value="" style="endArrow=classic;html=1;rounded=0;fontStyle=1;fontSize=14;" parent="1" edge="1" target="Uzyk35j1nbnxZXCuV49e-5" source="Uzyk35j1nbnxZXCuV49e-1">
          <mxGeometry width="50" height="50" relative="1" as="geometry">
            <mxPoint x="275" y="-230" as="sourcePoint" />
            <mxPoint x="80" y="-180" as="targetPoint" />
          </mxGeometry>
        </mxCell>
        <mxCell id="Uzyk35j1nbnxZXCuV49e-110" value="" style="endArrow=classic;html=1;rounded=0;fontStyle=1;fontSize=14;" parent="1" source="Uzyk35j1nbnxZXCuV49e-2" target="Uzyk35j1nbnxZXCuV49e-19" edge="1">
          <mxGeometry width="50" height="50" relative="1" as="geometry">
            <mxPoint x="285" y="-220" as="sourcePoint" />
            <mxPoint x="90" y="-170" as="targetPoint" />
            <Array as="points">
              <mxPoint x="660" y="150" />
            </Array>
          </mxGeometry>
        </mxCell>
        <mxCell id="Uzyk35j1nbnxZXCuV49e-111" value="" style="endArrow=classic;html=1;rounded=0;fontStyle=1;fontSize=14;" parent="1" source="Uzyk35j1nbnxZXCuV49e-20" target="Uzyk35j1nbnxZXCuV49e-115" edge="1">
          <mxGeometry width="50" height="50" relative="1" as="geometry">
            <mxPoint x="295" y="-210" as="sourcePoint" />
            <mxPoint x="100" y="-160" as="targetPoint" />
          </mxGeometry>
        </mxCell>
        <mxCell id="Uzyk35j1nbnxZXCuV49e-112" value="" style="endArrow=classic;html=1;rounded=0;fontStyle=1;fontSize=14;" parent="1" source="Uzyk35j1nbnxZXCuV49e-20" target="Uzyk35j1nbnxZXCuV49e-116" edge="1">
          <mxGeometry width="50" height="50" relative="1" as="geometry">
            <mxPoint x="305" y="-200" as="sourcePoint" />
            <mxPoint x="110" y="-150" as="targetPoint" />
          </mxGeometry>
        </mxCell>
        <mxCell id="Uzyk35j1nbnxZXCuV49e-113" value="" style="endArrow=classic;html=1;rounded=0;fontStyle=1;fontSize=14;" parent="1" source="Uzyk35j1nbnxZXCuV49e-21" target="Uzyk35j1nbnxZXCuV49e-103" edge="1">
          <mxGeometry width="50" height="50" relative="1" as="geometry">
            <mxPoint x="422.5" y="1090" as="sourcePoint" />
            <mxPoint x="227.5" y="1140" as="targetPoint" />
          </mxGeometry>
        </mxCell>
        <mxCell id="Uzyk35j1nbnxZXCuV49e-114" value="" style="endArrow=classic;html=1;rounded=0;fontStyle=1;fontSize=14;" parent="1" source="Uzyk35j1nbnxZXCuV49e-21" target="Uzyk35j1nbnxZXCuV49e-104" edge="1">
          <mxGeometry width="50" height="50" relative="1" as="geometry">
            <mxPoint x="432.5" y="1100" as="sourcePoint" />
            <mxPoint x="237.5" y="1150" as="targetPoint" />
          </mxGeometry>
        </mxCell>
        <mxCell id="Uzyk35j1nbnxZXCuV49e-115" value="&lt;span style=&quot;font-weight: 400;&quot;&gt;Отклонена&lt;/span&gt;" style="ellipse;whiteSpace=wrap;html=1;fontStyle=1;fontSize=14;" parent="1" vertex="1">
          <mxGeometry x="990" y="463" width="100" height="34" as="geometry" />
        </mxCell>
        <mxCell id="Uzyk35j1nbnxZXCuV49e-116" value="&lt;span style=&quot;font-weight: 400;&quot;&gt;Одобрена&lt;/span&gt;" style="ellipse;whiteSpace=wrap;html=1;fontStyle=1;fontSize=14;" parent="1" vertex="1">
          <mxGeometry x="930" y="564" width="90" height="34" as="geometry" />
        </mxCell>
        <mxCell id="pxbbBDP-Z8C4rLrSb89k-2" value="Производит" style="text;html=1;align=center;verticalAlign=middle;whiteSpace=wrap;rounded=0;rotation=70;" parent="1" vertex="1">
          <mxGeometry x="510" y="316" width="115" height="20" as="geometry" />
        </mxCell>
        <mxCell id="pxbbBDP-Z8C4rLrSb89k-3" value="Производит" style="text;html=1;align=center;verticalAlign=middle;whiteSpace=wrap;rounded=0;rotation=25;" parent="1" vertex="1">
          <mxGeometry x="285" y="370" width="115" height="20" as="geometry" />
        </mxCell>
        <mxCell id="pxbbBDP-Z8C4rLrSb89k-4" value="Нанимает" style="text;html=1;align=center;verticalAlign=middle;whiteSpace=wrap;rounded=0;rotation=45;" parent="1" vertex="1">
          <mxGeometry x="330" y="263" width="115" height="20" as="geometry" />
        </mxCell>
        <mxCell id="pxbbBDP-Z8C4rLrSb89k-5" value="Раздают" style="text;html=1;align=center;verticalAlign=middle;whiteSpace=wrap;rounded=0;rotation=15;" parent="1" vertex="1">
          <mxGeometry x="270" y="90" width="115" height="20" as="geometry" />
        </mxCell>
        <mxCell id="pxbbBDP-Z8C4rLrSb89k-7" value="Имеет" style="text;html=1;align=center;verticalAlign=middle;whiteSpace=wrap;rounded=0;rotation=62;" parent="1" vertex="1">
          <mxGeometry x="110" y="410" width="115" height="20" as="geometry" />
        </mxCell>
        <mxCell id="SRP_0RoNrgJV5vV0qsMc-1" value="Арендует" style="text;html=1;align=center;verticalAlign=middle;whiteSpace=wrap;rounded=0;rotation=0;" vertex="1" parent="1">
          <mxGeometry x="350" y="507" width="115" height="20" as="geometry" />
        </mxCell>
        <mxCell id="SRP_0RoNrgJV5vV0qsMc-2" value="Обучает" style="text;html=1;align=center;verticalAlign=middle;whiteSpace=wrap;rounded=0;rotation=-24;" vertex="1" parent="1">
          <mxGeometry x="330" y="610" width="115" height="20" as="geometry" />
        </mxCell>
        <mxCell id="SRP_0RoNrgJV5vV0qsMc-3" value="Контролирует" style="text;html=1;align=center;verticalAlign=middle;whiteSpace=wrap;rounded=0;rotation=-47;" vertex="1" parent="1">
          <mxGeometry x="370" y="704.5" width="115" height="20" as="geometry" />
        </mxCell>
        <mxCell id="SRP_0RoNrgJV5vV0qsMc-4" value="Например" style="text;html=1;align=center;verticalAlign=middle;whiteSpace=wrap;rounded=0;rotation=-65;" vertex="1" parent="1">
          <mxGeometry x="160" y="980" width="115" height="20" as="geometry" />
        </mxCell>
        <mxCell id="SRP_0RoNrgJV5vV0qsMc-5" value="Например" style="text;html=1;align=center;verticalAlign=middle;whiteSpace=wrap;rounded=0;rotation=70;" vertex="1" parent="1">
          <mxGeometry x="255" y="990" width="115" height="20" as="geometry" />
        </mxCell>
        <mxCell id="SRP_0RoNrgJV5vV0qsMc-6" value="Имеет" style="text;html=1;align=center;verticalAlign=middle;whiteSpace=wrap;rounded=0;rotation=0;" vertex="1" parent="1">
          <mxGeometry x="340" y="880" width="115" height="20" as="geometry" />
        </mxCell>
        <mxCell id="SRP_0RoNrgJV5vV0qsMc-7" value="Производит" style="text;html=1;align=center;verticalAlign=middle;whiteSpace=wrap;rounded=0;rotation=-79;" vertex="1" parent="1">
          <mxGeometry x="510" y="684.5" width="115" height="20" as="geometry" />
        </mxCell>
        <mxCell id="SRP_0RoNrgJV5vV0qsMc-9" value="Оплачивает" style="text;html=1;align=center;verticalAlign=middle;whiteSpace=wrap;rounded=0;rotation=68;" vertex="1" parent="1">
          <mxGeometry x="610" y="620" width="115" height="20" as="geometry" />
        </mxCell>
        <mxCell id="SRP_0RoNrgJV5vV0qsMc-10" value="Имеет" style="text;html=1;align=center;verticalAlign=middle;whiteSpace=wrap;rounded=0;rotation=70;" vertex="1" parent="1">
          <mxGeometry x="700" y="789" width="60" height="20" as="geometry" />
        </mxCell>
        <mxCell id="SRP_0RoNrgJV5vV0qsMc-11" value="Анализирует" style="text;html=1;align=center;verticalAlign=middle;whiteSpace=wrap;rounded=0;rotation=44;" vertex="1" parent="1">
          <mxGeometry x="770" y="915" width="95" height="20" as="geometry" />
        </mxCell>
        <mxCell id="SRP_0RoNrgJV5vV0qsMc-12" value="Имеет" style="text;html=1;align=center;verticalAlign=middle;whiteSpace=wrap;rounded=0;rotation=-18;" vertex="1" parent="1">
          <mxGeometry x="770" y="1010" width="60" height="20" as="geometry" />
        </mxCell>
        <mxCell id="SRP_0RoNrgJV5vV0qsMc-13" value="Создает" style="text;html=1;align=center;verticalAlign=middle;whiteSpace=wrap;rounded=0;rotation=-83;" vertex="1" parent="1">
          <mxGeometry x="670" y="935" width="80" height="20" as="geometry" />
        </mxCell>
        <mxCell id="SRP_0RoNrgJV5vV0qsMc-15" value="Например" style="text;html=1;align=center;verticalAlign=middle;whiteSpace=wrap;rounded=0;rotation=0;" vertex="1" parent="1">
          <mxGeometry x="910" y="460" width="70" height="20" as="geometry" />
        </mxCell>
        <mxCell id="SRP_0RoNrgJV5vV0qsMc-16" value="Например" style="text;html=1;align=center;verticalAlign=middle;whiteSpace=wrap;rounded=0;rotation=40;" vertex="1" parent="1">
          <mxGeometry x="890" y="514" width="70" height="20" as="geometry" />
        </mxCell>
        <mxCell id="SRP_0RoNrgJV5vV0qsMc-17" value="Имеет" style="text;html=1;align=center;verticalAlign=middle;whiteSpace=wrap;rounded=0;rotation=80;" vertex="1" parent="1">
          <mxGeometry x="830" y="400" width="60" height="20" as="geometry" />
        </mxCell>
        <mxCell id="SRP_0RoNrgJV5vV0qsMc-18" value="Обрабатывает" style="text;html=1;align=center;verticalAlign=middle;whiteSpace=wrap;rounded=0;rotation=37;" vertex="1" parent="1">
          <mxGeometry x="670" y="571" width="80" height="20" as="geometry" />
        </mxCell>
        <mxCell id="SRP_0RoNrgJV5vV0qsMc-20" value="Имеет" style="text;html=1;align=center;verticalAlign=middle;whiteSpace=wrap;rounded=0;rotation=42;" vertex="1" parent="1">
          <mxGeometry x="810" y="670" width="40" height="20" as="geometry" />
        </mxCell>
        <mxCell id="SRP_0RoNrgJV5vV0qsMc-21" value="Например" style="text;html=1;align=center;verticalAlign=middle;whiteSpace=wrap;rounded=0;rotation=54;" vertex="1" parent="1">
          <mxGeometry x="910" y="804" width="70" height="20" as="geometry" />
        </mxCell>
        <mxCell id="SRP_0RoNrgJV5vV0qsMc-22" value="Например" style="text;html=1;align=center;verticalAlign=middle;whiteSpace=wrap;rounded=0;rotation=18;" vertex="1" parent="1">
          <mxGeometry x="940" y="740" width="70" height="20" as="geometry" />
        </mxCell>
        <mxCell id="SRP_0RoNrgJV5vV0qsMc-23" value="Рассматривает" style="text;html=1;align=center;verticalAlign=middle;whiteSpace=wrap;rounded=0;rotation=-37;" vertex="1" parent="1">
          <mxGeometry x="680" y="410" width="100" height="20" as="geometry" />
        </mxCell>
        <mxCell id="SRP_0RoNrgJV5vV0qsMc-24" value="Выставляет клиенту" style="text;html=1;align=center;verticalAlign=middle;whiteSpace=wrap;rounded=0;rotation=-9;" vertex="1" parent="1">
          <mxGeometry x="960" y="620" width="120" height="20" as="geometry" />
        </mxCell>
        <mxCell id="SRP_0RoNrgJV5vV0qsMc-25" value="Оплачивает" style="text;html=1;align=center;verticalAlign=middle;whiteSpace=wrap;rounded=0;rotation=78;" vertex="1" parent="1">
          <mxGeometry x="1059" y="300" width="110" height="20" as="geometry" />
        </mxCell>
        <mxCell id="SRP_0RoNrgJV5vV0qsMc-26" value="Оставляет" style="text;html=1;align=center;verticalAlign=middle;whiteSpace=wrap;rounded=0;rotation=-27;" vertex="1" parent="1">
          <mxGeometry x="920" y="270" width="70" height="20" as="geometry" />
        </mxCell>
        <mxCell id="SRP_0RoNrgJV5vV0qsMc-27" value="Контролирует" style="text;html=1;align=center;verticalAlign=middle;whiteSpace=wrap;rounded=0;rotation=-81;" vertex="1" parent="1">
          <mxGeometry x="810" y="200.00000000000006" width="80" height="20" as="geometry" />
        </mxCell>
        <mxCell id="SRP_0RoNrgJV5vV0qsMc-28" value="Составляет" style="text;html=1;align=center;verticalAlign=middle;whiteSpace=wrap;rounded=0;rotation=-41;" vertex="1" parent="1">
          <mxGeometry x="750" y="189.99999999999994" width="80" height="14.95" as="geometry" />
        </mxCell>
        <mxCell id="SRP_0RoNrgJV5vV0qsMc-29" value="Составляет" style="text;html=1;align=center;verticalAlign=middle;whiteSpace=wrap;rounded=0;rotation=-29;" vertex="1" parent="1">
          <mxGeometry x="905" y="79.99999999999994" width="80" height="14.95" as="geometry" />
        </mxCell>
        <mxCell id="SRP_0RoNrgJV5vV0qsMc-31" value="Согласовывает" style="text;html=1;align=center;verticalAlign=middle;whiteSpace=wrap;rounded=0;rotation=-68;" vertex="1" parent="1">
          <mxGeometry x="610" y="385.05000000000007" width="90" height="14.95" as="geometry" />
        </mxCell>
        <mxCell id="SRP_0RoNrgJV5vV0qsMc-32" value="Согласовывает" style="text;html=1;align=center;verticalAlign=middle;whiteSpace=wrap;rounded=0;rotation=-16;" vertex="1" parent="1">
          <mxGeometry x="795" y="80.00000000000011" width="90" height="14.95" as="geometry" />
        </mxCell>
        <mxCell id="SRP_0RoNrgJV5vV0qsMc-33" value="Подписывает" style="text;html=1;align=center;verticalAlign=middle;whiteSpace=wrap;rounded=0;rotation=-9;" vertex="1" parent="1">
          <mxGeometry x="890" y="230.0000000000001" width="90" height="14.95" as="geometry" />
        </mxCell>
        <mxCell id="SRP_0RoNrgJV5vV0qsMc-34" value="Подписывает" style="text;html=1;align=center;verticalAlign=middle;whiteSpace=wrap;rounded=0;rotation=79;" vertex="1" parent="1">
          <mxGeometry x="1030" y="130.0000000000001" width="90" height="14.95" as="geometry" />
        </mxCell>
      </root>
    </mxGraphModel>
  </diagram>
</mxfile>
